{
  "asset": {
    "version": "2.0",
    "generator": "estella test fixture"
  },
  "buffers": [
    {
      "byteLength": 370,
      "uri": "data:application/octet-stream;base64,"
    }
  ],
  "bufferViews": [
    {
      "buffer": 0,
      "byteOffset": 0,
      "byteLength": 72
    },
    {
      "buffer": 0,
      "byteOffset": 72,
      "byteLength": 24
    },
    {
      "buffer": 0,
      "byteOffset": 98,
      "byteLength": 48
    },
    {
      "buffer": 0,
      "byteOffset": 146,
      "byteLength": 96
    },
    {
      "buffer": 0,
      "byteOffset": 242,
      "byteLength": 128
    }
  ],
  "accessors": [
    {
      "bufferView": 0,
      "componentType": 5126,
      "count": 6,
      "type": "VEC3",
      "min": [
        0,
        -20,
        0
      ],
      "max": [
        120,
        20,
        0
      ]
    },
    {
      "bufferView": 1,
      "componentType": 5123,
      "count": 12,
      "type": "SCALAR"
    },
    {
      "bufferView": 2,
      "componentType": 5123,
      "count": 6,
      "type": "VEC4"
    },
    {
      "bufferView": 3,
      "componentType": 5126,
      "count": 6,
      "type": "VEC4"
    },
    {
      "bufferView": 4,
      "componentType": 5126,
      "count": 2,
      "type": "MAT4"
    }
  ],
  "meshes": [
    {
      "name": "Arm",
      "primitives": [
        {
          "attributes": {
            "POSITION": 0,
            "JOINTS_0": 2,
            "WEIGHTS_0": 3
          },
          "indices": 1,
          "mode": 4
        }
      ]
    }
  ],
  "nodes": [
    {
      "name": "Rig",
      "children": [
        1,
        2,
        3
      ]
    },
    {
      "name": "Bone0"
    },
    {
      "name": "Bone1",
      "translation": [
        60,
        0,
        0
      ]
    },
    {
      "name": "Body",
      "mesh": 0,
      "skin": 0
    }
  ],
  "scenes": [
    {
      "nodes": [
        0
      ]
    }
  ],
  "scene": 0,
  "skins": [
    {
      "joints": [
        1,
        2
      ],
      "inverseBindMatrices": 4
    }
  ]
}
