<svg xmlns="http://www.w3.org/2000/svg" viewBox="0 0 400 378" width="400" height="378" role="img"><text x="122" y="20" fill="#8b91a0" font-size="12" font-weight="600" text-anchor="middle" font-family="ui-sans-serif,system-ui,-apple-system,Segoe UI,Roboto,sans-serif">Left</text><text x="232" y="20" fill="#8b91a0" font-size="12" font-weight="600" text-anchor="middle" font-family="ui-sans-serif,system-ui,-apple-system,Segoe UI,Roboto,sans-serif">Center</text><text x="342" y="20" fill="#8b91a0" font-size="12" font-weight="600" text-anchor="middle" font-family="ui-sans-serif,system-ui,-apple-system,Segoe UI,Roboto,sans-serif">Right</text><text x="62" y="68" fill="#8b91a0" font-size="12" font-weight="600" text-anchor="end" font-family="ui-sans-serif,system-ui,-apple-system,Segoe UI,Roboto,sans-serif">Top</text><text x="62" y="150" fill="#8b91a0" font-size="12" font-weight="600" text-anchor="end" font-family="ui-sans-serif,system-ui,-apple-system,Segoe UI,Roboto,sans-serif">Middle</text><text x="62" y="232" fill="#8b91a0" font-size="12" font-weight="600" text-anchor="end" font-family="ui-sans-serif,system-ui,-apple-system,Segoe UI,Roboto,sans-serif">Bottom</text><rect x="74" y="30" width="96" height="68" rx="6" fill="#14161c" stroke="#2b2f3a" stroke-width="1"/><rect x="81" y="37" width="30" height="22" rx="4" fill="#5b9cf0"/><rect x="184" y="30" width="96" height="68" rx="6" fill="#14161c" stroke="#2b2f3a" stroke-width="1"/><rect x="217" y="37" width="30" height="22" rx="4" fill="#5b9cf0"/><rect x="294" y="30" width="96" height="68" rx="6" fill="#14161c" stroke="#2b2f3a" stroke-width="1"/><rect x="353" y="37" width="30" height="22" rx="4" fill="#5b9cf0"/><rect x="74" y="112" width="96" height="68" rx="6" fill="#14161c" stroke="#2b2f3a" stroke-width="1"/><rect x="81" y="135" width="30" height="22" rx="4" fill="#5b9cf0"/><rect x="184" y="112" width="96" height="68" rx="6" fill="#14161c" stroke="#2b2f3a" stroke-width="1"/><rect x="217" y="135" width="30" height="22" rx="4" fill="#5b9cf0"/><rect x="294" y="112" width="96" height="68" rx="6" fill="#14161c" stroke="#2b2f3a" stroke-width="1"/><rect x="353" y="135" width="30" height="22" rx="4" fill="#5b9cf0"/><rect x="74" y="194" width="96" height="68" rx="6" fill="#14161c" stroke="#2b2f3a" stroke-width="1"/><rect x="81" y="233" width="30" height="22" rx="4" fill="#5b9cf0"/><rect x="184" y="194" width="96" height="68" rx="6" fill="#14161c" stroke="#2b2f3a" stroke-width="1"/><rect x="217" y="233" width="30" height="22" rx="4" fill="#5b9cf0"/><rect x="294" y="194" width="96" height="68" rx="6" fill="#14161c" stroke="#2b2f3a" stroke-width="1"/><rect x="353" y="233" width="30" height="22" rx="4" fill="#5b9cf0"/><text x="62" y="324" fill="#8b91a0" font-size="12" font-weight="600" text-anchor="end" font-family="ui-sans-serif,system-ui,-apple-system,Segoe UI,Roboto,sans-serif">Stretch</text><rect x="74" y="286" width="96" height="68" rx="6" fill="#14161c" stroke="#2b2f3a" stroke-width="1"/><rect x="81" y="309" width="82" height="22" rx="4" fill="#54c479"/><text x="122" y="369" fill="#8b91a0" font-size="11" font-weight="400" text-anchor="middle" font-family="ui-sans-serif,system-ui,-apple-system,Segoe UI,Roboto,sans-serif">H stretch</text><rect x="184" y="286" width="96" height="68" rx="6" fill="#14161c" stroke="#2b2f3a" stroke-width="1"/><rect x="217" y="293" width="30" height="54" rx="4" fill="#54c479"/><text x="232" y="369" fill="#8b91a0" font-size="11" font-weight="400" text-anchor="middle" font-family="ui-sans-serif,system-ui,-apple-system,Segoe UI,Roboto,sans-serif">V stretch</text></svg>