{
  "asset": {
    "version": "2.0",
    "generator": "estella example asset"
  },
  "buffers": [
    {
      "byteLength": 76032,
      "uri": "data:application/octet-stream;base64,"
    }
  ],
  "bufferViews": [
    {
      "buffer": 0,
      "byteOffset": 0,
      "byteLength": 20736
    },
    {
      "buffer": 0,
      "byteOffset": 20736,
      "byteLength": 20736
    },
    {
      "buffer": 0,
      "byteOffset": 41472,
      "byteLength": 27648
    },
    {
      "buffer": 0,
      "byteOffset": 69120,
      "byteLength": 6912
    }
  ],
  "accessors": [
    {
      "bufferView": 0,
      "componentType": 5126,
      "count": 1728,
      "type": "VEC3",
      "min": [
        -46.607136622440805,
        -52.66247813959319,
        -41.19793808954284
      ],
      "max": [
        51.96084096636278,
        53.462478139593195,
        53.599999999999994
      ]
    },
    {
      "bufferView": 1,
      "componentType": 5126,
      "count": 1728,
      "type": "VEC3"
    },
    {
      "bufferView": 2,
      "componentType": 5126,
      "count": 1728,
      "type": "VEC4"
    },
    {
      "bufferView": 3,
      "componentType": 5125,
      "count": 1728,
      "type": "SCALAR"
    }
  ],
  "meshes": [
    {
      "name": "rock_lod0",
      "primitives": [
        {
          "attributes": {
            "POSITION": 0,
            "NORMAL": 1,
            "COLOR_0": 2
          },
          "indices": 3,
          "mode": 4
        }
      ]
    }
  ],
  "nodes": [
    {
      "mesh": 0
    }
  ],
  "scenes": [
    {
      "nodes": [
        0
      ]
    }
  ],
  "scene": 0
}
