{
  "asset": {
    "version": "2.0",
    "generator": "estella example asset"
  },
  "buffers": [
    {
      "byteLength": 19008,
      "uri": "data:application/octet-stream;base64,"
    }
  ],
  "bufferViews": [
    {
      "buffer": 0,
      "byteOffset": 0,
      "byteLength": 5184
    },
    {
      "buffer": 0,
      "byteOffset": 5184,
      "byteLength": 5184
    },
    {
      "buffer": 0,
      "byteOffset": 10368,
      "byteLength": 6912
    },
    {
      "buffer": 0,
      "byteOffset": 17280,
      "byteLength": 1728
    }
  ],
  "accessors": [
    {
      "bufferView": 0,
      "componentType": 5126,
      "count": 432,
      "type": "VEC3",
      "min": [
        -44.8,
        -50.4,
        -41.19793808954284
      ],
      "max": [
        48.81896164284589,
        52.0,
        53.599999999999994
      ]
    },
    {
      "bufferView": 1,
      "componentType": 5126,
      "count": 432,
      "type": "VEC3"
    },
    {
      "bufferView": 2,
      "componentType": 5126,
      "count": 432,
      "type": "VEC4"
    },
    {
      "bufferView": 3,
      "componentType": 5125,
      "count": 432,
      "type": "SCALAR"
    }
  ],
  "meshes": [
    {
      "name": "rock_lod1",
      "primitives": [
        {
          "attributes": {
            "POSITION": 0,
            "NORMAL": 1,
            "COLOR_0": 2
          },
          "indices": 3,
          "mode": 4
        }
      ]
    }
  ],
  "nodes": [
    {
      "mesh": 0
    }
  ],
  "scenes": [
    {
      "nodes": [
        0
      ]
    }
  ],
  "scene": 0
}
