{
  "asset": {
    "version": "2.0",
    "generator": "estella example asset"
  },
  "buffers": [
    {
      "byteLength": 5808,
      "uri": "data:application/octet-stream;base64,"
    }
  ],
  "bufferViews": [
    {
      "buffer": 0,
      "byteOffset": 0,
      "byteLength": 1584
    },
    {
      "buffer": 0,
      "byteOffset": 1584,
      "byteLength": 1584
    },
    {
      "buffer": 0,
      "byteOffset": 3168,
      "byteLength": 2112
    },
    {
      "buffer": 0,
      "byteOffset": 5280,
      "byteLength": 528
    }
  ],
  "accessors": [
    {
      "bufferView": 0,
      "componentType": 5126,
      "count": 132,
      "type": "VEC3",
      "min": [
        -44.8,
        -41.60000000000001,
        -41.19793808954284
      ],
      "max": [
        44.800000000000004,
        43.2,
        41.197938089542845
      ]
    },
    {
      "bufferView": 1,
      "componentType": 5126,
      "count": 132,
      "type": "VEC3"
    },
    {
      "bufferView": 2,
      "componentType": 5126,
      "count": 132,
      "type": "VEC4"
    },
    {
      "bufferView": 3,
      "componentType": 5125,
      "count": 132,
      "type": "SCALAR"
    }
  ],
  "meshes": [
    {
      "name": "rock_lod2",
      "primitives": [
        {
          "attributes": {
            "POSITION": 0,
            "NORMAL": 1,
            "COLOR_0": 2
          },
          "indices": 3,
          "mode": 4
        }
      ]
    }
  ],
  "nodes": [
    {
      "mesh": 0
    }
  ],
  "scenes": [
    {
      "nodes": [
        0
      ]
    }
  ],
  "scene": 0
}
