{
 "asset": {
  "version": "2.0",
  "generator": "estella test fixture"
 },
 "buffers": [
  {
   "byteLength": 252,
   "uri": "data:application/octet-stream;base64,"
  }
 ],
 "bufferViews": [
  {
   "buffer": 0,
   "byteOffset": 0,
   "byteLength": 72
  },
  {
   "buffer": 0,
   "byteOffset": 72,
   "byteLength": 72
  },
  {
   "buffer": 0,
   "byteOffset": 144,
   "byteLength": 96
  },
  {
   "buffer": 0,
   "byteOffset": 240,
   "byteLength": 12
  }
 ],
 "accessors": [
  {
   "bufferView": 0,
   "componentType": 5126,
   "count": 6,
   "type": "VEC3",
   "min": [
    -200,
    -100,
    0
   ],
   "max": [
    200,
    100,
    0
   ]
  },
  {
   "bufferView": 1,
   "componentType": 5126,
   "count": 6,
   "type": "VEC3"
  },
  {
   "bufferView": 2,
   "componentType": 5126,
   "count": 6,
   "type": "VEC4"
  },
  {
   "bufferView": 3,
   "componentType": 5123,
   "count": 6,
   "type": "SCALAR"
  }
 ],
 "meshes": [
  {
   "name": "EnvTriangles",
   "primitives": [
    {
     "attributes": {
      "POSITION": 0,
      "NORMAL": 1,
      "COLOR_0": 2
     },
     "indices": 3,
     "mode": 4
    }
   ]
  }
 ],
 "nodes": [
  {
   "mesh": 0
  }
 ],
 "scenes": [
  {
   "nodes": [
    0
   ]
  }
 ],
 "scene": 0
}
