{
  "asset": {
    "version": "2.0",
    "generator": "estella test fixture"
  },
  "buffers": [
    {
      "byteLength": 7464,
      "uri": "data:application/octet-stream;base64,"
    }
  ],
  "bufferViews": [
    {
      "buffer": 0,
      "byteOffset": 0,
      "byteLength": 1836
    },
    {
      "buffer": 0,
      "byteOffset": 1836,
      "byteLength": 1836
    },
    {
      "buffer": 0,
      "byteOffset": 3672,
      "byteLength": 2448
    },
    {
      "buffer": 0,
      "byteOffset": 6120,
      "byteLength": 1344
    }
  ],
  "accessors": [
    {
      "bufferView": 0,
      "componentType": 5126,
      "count": 153,
      "type": "VEC3",
      "min": [
        -100.0,
        -100.0,
        -100.0
      ],
      "max": [
        100.0,
        100.0,
        100.0
      ]
    },
    {
      "bufferView": 1,
      "componentType": 5126,
      "count": 153,
      "type": "VEC3"
    },
    {
      "bufferView": 2,
      "componentType": 5126,
      "count": 153,
      "type": "VEC4"
    },
    {
      "bufferView": 3,
      "componentType": 5123,
      "count": 672,
      "type": "SCALAR"
    }
  ],
  "meshes": [
    {
      "name": "LodHigh",
      "primitives": [
        {
          "attributes": {
            "POSITION": 0,
            "NORMAL": 1,
            "COLOR_0": 2
          },
          "indices": 3,
          "mode": 4
        }
      ]
    }
  ],
  "nodes": [
    {
      "mesh": 0
    }
  ],
  "scenes": [
    {
      "nodes": [
        0
      ]
    }
  ],
  "scene": 0
}
