{
  "asset": {
    "version": "2.0",
    "generator": "estella crossfade fixture"
  },
  "buffers": [
    {
      "byteLength": 370,
      "uri": "data:application/octet-stream;base64,"
    },
    {
      "byteLength": 72,
      "uri": "data:application/octet-stream;base64,"
    }
  ],
  "bufferViews": [
    {
      "buffer": 0,
      "byteOffset": 0,
      "byteLength": 72
    },
    {
      "buffer": 0,
      "byteOffset": 72,
      "byteLength": 24
    },
    {
      "buffer": 0,
      "byteOffset": 98,
      "byteLength": 48
    },
    {
      "buffer": 0,
      "byteOffset": 146,
      "byteLength": 96
    },
    {
      "buffer": 0,
      "byteOffset": 242,
      "byteLength": 128
    },
    {
      "buffer": 1,
      "byteOffset": 0,
      "byteLength": 8
    },
    {
      "buffer": 1,
      "byteOffset": 8,
      "byteLength": 32
    },
    {
      "buffer": 1,
      "byteOffset": 40,
      "byteLength": 32
    }
  ],
  "accessors": [
    {
      "bufferView": 0,
      "componentType": 5126,
      "count": 6,
      "type": "VEC3",
      "min": [
        0,
        -20,
        0
      ],
      "max": [
        120,
        20,
        0
      ]
    },
    {
      "bufferView": 1,
      "componentType": 5123,
      "count": 12,
      "type": "SCALAR"
    },
    {
      "bufferView": 2,
      "componentType": 5123,
      "count": 6,
      "type": "VEC4"
    },
    {
      "bufferView": 3,
      "componentType": 5126,
      "count": 6,
      "type": "VEC4"
    },
    {
      "bufferView": 4,
      "componentType": 5126,
      "count": 2,
      "type": "MAT4"
    },
    {
      "bufferView": 5,
      "componentType": 5126,
      "count": 2,
      "type": "SCALAR",
      "min": [
        0.0
      ],
      "max": [
        1.0
      ]
    },
    {
      "bufferView": 6,
      "componentType": 5126,
      "count": 2,
      "type": "VEC4"
    },
    {
      "bufferView": 7,
      "componentType": 5126,
      "count": 2,
      "type": "VEC4"
    }
  ],
  "meshes": [
    {
      "name": "Arm",
      "primitives": [
        {
          "attributes": {
            "POSITION": 0,
            "JOINTS_0": 2,
            "WEIGHTS_0": 3
          },
          "indices": 1,
          "mode": 4
        }
      ]
    }
  ],
  "nodes": [
    {
      "name": "Rig",
      "children": [
        1,
        2,
        3
      ]
    },
    {
      "name": "Bone0"
    },
    {
      "name": "Bone1",
      "translation": [
        60,
        0,
        0
      ]
    },
    {
      "name": "Body",
      "mesh": 0,
      "skin": 0
    }
  ],
  "scenes": [
    {
      "nodes": [
        0
      ]
    }
  ],
  "scene": 0,
  "skins": [
    {
      "joints": [
        1,
        2
      ],
      "inverseBindMatrices": 4
    }
  ],
  "animations": [
    {
      "name": "Flat",
      "samplers": [
        {
          "input": 5,
          "output": 6,
          "interpolation": "LINEAR"
        }
      ],
      "channels": [
        {
          "sampler": 0,
          "target": {
            "node": 2,
            "path": "rotation"
          }
        }
      ]
    },
    {
      "name": "Bent",
      "samplers": [
        {
          "input": 5,
          "output": 7,
          "interpolation": "LINEAR"
        }
      ],
      "channels": [
        {
          "sampler": 0,
          "target": {
            "node": 2,
            "path": "rotation"
          }
        }
      ]
    }
  ]
}