{"asset":{"version":"2.0","generator":"estella tools/make-rig-corpus.mjs"},"accessors":[{"bufferView":0,"componentType":5126,"count":3390,"type":"VEC3","min":[-0.9722270965576172,0.00046146291424520314,-0.164154052734375],"max":[0.972227156162262,1.8291784524917603,0.20544447004795074]},{"bufferView":1,"componentType":5126,"count":3390,"type":"VEC3"},{"bufferView":2,"componentType":5126,"count":3390,"type":"VEC2"},{"bufferView":3,"componentType":5126,"count":3390,"type":"VEC2"},{"bufferView":4,"componentType":5123,"count":3390,"type":"VEC4"},{"bufferView":5,"componentType":5126,"count":3390,"type":"VEC4"},{"bufferView":6,"componentType":5123,"count":17193,"type":"SCALAR"},{"bufferView":7,"componentType":5126,"count":23,"type":"MAT4"},{"bufferView":8,"componentType":5126,"count":43,"type":"SCALAR","min":[0],"max":[2]},{"bufferView":9,"componentType":5126,"count":43,"type":"VEC3"},{"bufferView":10,"componentType":5126,"count":9,"type":"SCALAR","min":[0],"max":[2]},{"bufferView":11,"componentType":5126,"count":9,"type":"VEC4"},{"bufferView":12,"componentType":5126,"count":9,"type":"SCALAR","min":[0],"max":[2]},{"bufferView":13,"componentType":5126,"count":9,"type":"VEC4"},{"bufferView":14,"componentType":5126,"count":10,"type":"SCALAR","min":[0],"max":[2]},{"bufferView":15,"componentType":5126,"count":10,"type":"VEC4"},{"bufferView":16,"componentType":5126,"count":6,"type":"SCALAR","min":[0],"max":[2]},{"bufferView":17,"componentType":5126,"count":6,"type":"VEC4"},{"bufferView":18,"componentType":5126,"count":5,"type":"SCALAR","min":[0],"max":[2]},{"bufferView":19,"componentType":5126,"count":5,"type":"VEC4"},{"bufferView":20,"componentType":5126,"count":2,"type":"SCALAR","min":[0],"max":[2]},{"bufferView":21,"componentType":5126,"count":2,"type":"VEC4"},{"bufferView":22,"componentType":5126,"count":6,"type":"SCALAR","min":[0],"max":[2]},{"bufferView":23,"componentType":5126,"count":6,"type":"VEC4"},{"bufferView":24,"componentType":5126,"count":2,"type":"SCALAR","min":[0],"max":[2]},{"bufferView":25,"componentType":5126,"count":2,"type":"VEC4"},{"bufferView":26,"componentType":5126,"count":2,"type":"VEC4"},{"bufferView":27,"componentType":5126,"count":9,"type":"SCALAR","min":[0],"max":[2]},{"bufferView":28,"componentType":5126,"count":9,"type":"VEC4"},{"bufferView":29,"componentType":5126,"count":14,"type":"SCALAR","min":[0],"max":[2]},{"bufferView":30,"componentType":5126,"count":14,"type":"VEC4"},{"bufferView":31,"componentType":5126,"count":2,"type":"VEC4"},{"bufferView":32,"componentType":5126,"count":25,"type":"SCALAR","min":[0],"max":[2]},{"bufferView":33,"componentType":5126,"count":25,"type":"VEC4"},{"bufferView":34,"componentType":5126,"count":23,"type":"SCALAR","min":[0],"max":[2]},{"bufferView":35,"componentType":5126,"count":23,"type":"VEC4"},{"bufferView":36,"componentType":5126,"count":33,"type":"SCALAR","min":[0],"max":[2]},{"bufferView":37,"componentType":5126,"count":33,"type":"VEC4"},{"bufferView":38,"componentType":5126,"count":20,"type":"SCALAR","min":[0],"max":[2]},{"bufferView":39,"componentType":5126,"count":20,"type":"VEC4"},{"bufferView":40,"componentType":5126,"count":26,"type":"SCALAR","min":[0],"max":[2]},{"bufferView":41,"componentType":5126,"count":26,"type":"VEC4"},{"bufferView":42,"componentType":5126,"count":27,"type":"SCALAR","min":[0],"max":[2]},{"bufferView":43,"componentType":5126,"count":27,"type":"VEC4"},{"bufferView":44,"componentType":5126,"count":33,"type":"SCALAR","min":[0],"max":[2]},{"bufferView":45,"componentType":5126,"count":33,"type":"VEC4"},{"bufferView":46,"componentType":5126,"count":18,"type":"SCALAR","min":[0],"max":[2]},{"bufferView":47,"componentType":5126,"count":18,"type":"VEC4"},{"bufferView":48,"componentType":5126,"count":7,"type":"SCALAR","min":[0],"max":[2.9166667461395264]},{"bufferView":49,"componentType":5126,"count":7,"type":"VEC3"},{"bufferView":50,"componentType":5126,"count":3,"type":"SCALAR","min":[0],"max":[2.9166667461395264]},{"bufferView":51,"componentType":5126,"count":3,"type":"VEC4"},{"bufferView":52,"componentType":5126,"count":4,"type":"SCALAR","min":[0],"max":[2.9166667461395264]},{"bufferView":53,"componentType":5126,"count":4,"type":"VEC4"},{"bufferView":54,"componentType":5126,"count":4,"type":"SCALAR","min":[0],"max":[2.9166667461395264]},{"bufferView":55,"componentType":5126,"count":4,"type":"VEC4"},{"bufferView":56,"componentType":5126,"count":3,"type":"SCALAR","min":[0],"max":[2.9166667461395264]},{"bufferView":57,"componentType":5126,"count":3,"type":"VEC4"},{"bufferView":58,"componentType":5126,"count":8,"type":"SCALAR","min":[0],"max":[2.9166667461395264]},{"bufferView":59,"componentType":5126,"count":8,"type":"VEC4"},{"bufferView":60,"componentType":5126,"count":7,"type":"SCALAR","min":[0],"max":[2.9166667461395264]},{"bufferView":61,"componentType":5126,"count":7,"type":"VEC4"},{"bufferView":62,"componentType":5126,"count":4,"type":"SCALAR","min":[0],"max":[2.9166667461395264]},{"bufferView":63,"componentType":5126,"count":4,"type":"VEC4"},{"bufferView":64,"componentType":5126,"count":7,"type":"SCALAR","min":[0],"max":[2.9166667461395264]},{"bufferView":65,"componentType":5126,"count":7,"type":"VEC4"},{"bufferView":66,"componentType":5126,"count":4,"type":"SCALAR","min":[0],"max":[2.9166667461395264]},{"bufferView":67,"componentType":5126,"count":4,"type":"VEC4"},{"bufferView":68,"componentType":5126,"count":7,"type":"SCALAR","min":[0],"max":[2.9166667461395264]},{"bufferView":69,"componentType":5126,"count":7,"type":"VEC4"},{"bufferView":70,"componentType":5126,"count":4,"type":"SCALAR","min":[0],"max":[2.9166667461395264]},{"bufferView":71,"componentType":5126,"count":4,"type":"VEC4"},{"bufferView":72,"componentType":5126,"count":2,"type":"SCALAR","min":[0],"max":[2.9166667461395264]},{"bufferView":73,"componentType":5126,"count":2,"type":"VEC4"},{"bufferView":74,"componentType":5126,"count":5,"type":"SCALAR","min":[0],"max":[2.9166667461395264]},{"bufferView":75,"componentType":5126,"count":5,"type":"VEC4"},{"bufferView":76,"componentType":5126,"count":5,"type":"SCALAR","min":[0],"max":[2.9166667461395264]},{"bufferView":77,"componentType":5126,"count":5,"type":"VEC4"},{"bufferView":78,"componentType":5126,"count":3,"type":"SCALAR","min":[0],"max":[2.9166667461395264]},{"bufferView":79,"componentType":5126,"count":3,"type":"VEC4"},{"bufferView":80,"componentType":5126,"count":4,"type":"SCALAR","min":[0],"max":[2.9166667461395264]},{"bufferView":81,"componentType":5126,"count":4,"type":"VEC4"},{"bufferView":82,"componentType":5126,"count":5,"type":"SCALAR","min":[0],"max":[2.9166667461395264]},{"bufferView":83,"componentType":5126,"count":5,"type":"VEC4"},{"bufferView":84,"componentType":5126,"count":3,"type":"SCALAR","min":[0],"max":[2.9166667461395264]},{"bufferView":85,"componentType":5126,"count":3,"type":"VEC4"},{"bufferView":86,"componentType":5126,"count":7,"type":"SCALAR","min":[0],"max":[2.9166667461395264]},{"bufferView":87,"componentType":5126,"count":7,"type":"VEC4"},{"bufferView":88,"componentType":5126,"count":6,"type":"SCALAR","min":[0],"max":[2.9166667461395264]},{"bufferView":89,"componentType":5126,"count":6,"type":"VEC4"},{"bufferView":90,"componentType":5126,"count":15,"type":"SCALAR","min":[0],"max":[2.5]},{"bufferView":91,"componentType":5126,"count":15,"type":"VEC3"},{"bufferView":92,"componentType":5126,"count":6,"type":"SCALAR","min":[0],"max":[2.5]},{"bufferView":93,"componentType":5126,"count":6,"type":"VEC4"},{"bufferView":94,"componentType":5126,"count":6,"type":"SCALAR","min":[0],"max":[2.5]},{"bufferView":95,"componentType":5126,"count":6,"type":"VEC4"},{"bufferView":96,"componentType":5126,"count":6,"type":"SCALAR","min":[0],"max":[2.5]},{"bufferView":97,"componentType":5126,"count":6,"type":"VEC4"},{"bufferView":98,"componentType":5126,"count":6,"type":"SCALAR","min":[0],"max":[2.5]},{"bufferView":99,"componentType":5126,"count":6,"type":"VEC4"},{"bufferView":100,"componentType":5126,"count":9,"type":"SCALAR","min":[0],"max":[2.5]},{"bufferView":101,"componentType":5126,"count":9,"type":"VEC4"},{"bufferView":102,"componentType":5126,"count":5,"type":"SCALAR","min":[0],"max":[2.5]},{"bufferView":103,"componentType":5126,"count":5,"type":"VEC4"},{"bufferView":104,"componentType":5126,"count":11,"type":"SCALAR","min":[0],"max":[2.5]},{"bufferView":105,"componentType":5126,"count":11,"type":"VEC4"},{"bufferView":106,"componentType":5126,"count":13,"type":"SCALAR","min":[0],"max":[2.5]},{"bufferView":107,"componentType":5126,"count":13,"type":"VEC4"},{"bufferView":108,"componentType":5126,"count":2,"type":"SCALAR","min":[0],"max":[2.5]},{"bufferView":109,"componentType":5126,"count":2,"type":"VEC4"},{"bufferView":110,"componentType":5126,"count":5,"type":"SCALAR","min":[0],"max":[2.5]},{"bufferView":111,"componentType":5126,"count":5,"type":"VEC4"},{"bufferView":112,"componentType":5126,"count":8,"type":"SCALAR","min":[0],"max":[2.5]},{"bufferView":113,"componentType":5126,"count":8,"type":"VEC4"},{"bufferView":114,"componentType":5126,"count":7,"type":"SCALAR","min":[0],"max":[2.5]},{"bufferView":115,"componentType":5126,"count":7,"type":"VEC4"},{"bufferView":116,"componentType":5126,"count":2,"type":"VEC4"},{"bufferView":117,"componentType":5126,"count":12,"type":"SCALAR","min":[0],"max":[2.5]},{"bufferView":118,"componentType":5126,"count":12,"type":"VEC4"},{"bufferView":119,"componentType":5126,"count":12,"type":"SCALAR","min":[0],"max":[2.5]},{"bufferView":120,"componentType":5126,"count":12,"type":"VEC4"},{"bufferView":121,"componentType":5126,"count":5,"type":"SCALAR","min":[0],"max":[2.5]},{"bufferView":122,"componentType":5126,"count":5,"type":"VEC4"},{"bufferView":123,"componentType":5126,"count":11,"type":"SCALAR","min":[0],"max":[2.5]},{"bufferView":124,"componentType":5126,"count":11,"type":"VEC4"},{"bufferView":125,"componentType":5126,"count":12,"type":"SCALAR","min":[0],"max":[2.5]},{"bufferView":126,"componentType":5126,"count":12,"type":"VEC4"},{"bufferView":127,"componentType":5126,"count":6,"type":"SCALAR","min":[0],"max":[2.5]},{"bufferView":128,"componentType":5126,"count":6,"type":"VEC4"},{"bufferView":129,"componentType":5126,"count":23,"type":"SCALAR","min":[0],"max":[0.9166666666666666]},{"bufferView":130,"componentType":5126,"count":23,"type":"VEC3"},{"bufferView":131,"componentType":5126,"count":8,"type":"SCALAR","min":[0],"max":[0.9166666865348816]},{"bufferView":132,"componentType":5126,"count":8,"type":"VEC4"},{"bufferView":133,"componentType":5126,"count":15,"type":"SCALAR","min":[0],"max":[0.9166666865348816]},{"bufferView":134,"componentType":5126,"count":15,"type":"VEC4"},{"bufferView":135,"componentType":5126,"count":21,"type":"SCALAR","min":[0],"max":[0.9166666865348816]},{"bufferView":136,"componentType":5126,"count":21,"type":"VEC4"},{"bufferView":137,"componentType":5126,"count":19,"type":"SCALAR","min":[0],"max":[0.9166666865348816]},{"bufferView":138,"componentType":5126,"count":19,"type":"VEC4"},{"bufferView":139,"componentType":5126,"count":18,"type":"SCALAR","min":[0],"max":[0.9166666865348816]},{"bufferView":140,"componentType":5126,"count":18,"type":"VEC4"},{"bufferView":141,"componentType":5126,"count":4,"type":"SCALAR","min":[0],"max":[0.9166666865348816]},{"bufferView":142,"componentType":5126,"count":4,"type":"VEC4"},{"bufferView":143,"componentType":5126,"count":16,"type":"SCALAR","min":[0],"max":[0.9166666865348816]},{"bufferView":144,"componentType":5126,"count":16,"type":"VEC4"},{"bufferView":145,"componentType":5126,"count":19,"type":"SCALAR","min":[0],"max":[0.9166666865348816]},{"bufferView":146,"componentType":5126,"count":19,"type":"VEC4"},{"bufferView":147,"componentType":5126,"count":2,"type":"SCALAR","min":[0],"max":[0.9166666666666666]},{"bufferView":148,"componentType":5126,"count":2,"type":"VEC4"},{"bufferView":149,"componentType":5126,"count":5,"type":"SCALAR","min":[0],"max":[0.9166666865348816]},{"bufferView":150,"componentType":5126,"count":5,"type":"VEC4"},{"bufferView":151,"componentType":5126,"count":16,"type":"SCALAR","min":[0],"max":[0.9166666865348816]},{"bufferView":152,"componentType":5126,"count":16,"type":"VEC4"},{"bufferView":153,"componentType":5126,"count":19,"type":"SCALAR","min":[0],"max":[0.9166666865348816]},{"bufferView":154,"componentType":5126,"count":19,"type":"VEC4"},{"bufferView":155,"componentType":5126,"count":2,"type":"VEC4"},{"bufferView":156,"componentType":5126,"count":20,"type":"SCALAR","min":[0],"max":[0.9166666865348816]},{"bufferView":157,"componentType":5126,"count":20,"type":"VEC4"},{"bufferView":158,"componentType":5126,"count":22,"type":"SCALAR","min":[0],"max":[0.9166666865348816]},{"bufferView":159,"componentType":5126,"count":22,"type":"VEC4"},{"bufferView":160,"componentType":5126,"count":22,"type":"SCALAR","min":[0],"max":[0.9166666865348816]},{"bufferView":161,"componentType":5126,"count":22,"type":"VEC4"},{"bufferView":162,"componentType":5126,"count":10,"type":"SCALAR","min":[0],"max":[0.9166666865348816]},{"bufferView":163,"componentType":5126,"count":10,"type":"VEC4"},{"bufferView":164,"componentType":5126,"count":20,"type":"SCALAR","min":[0],"max":[0.9166666865348816]},{"bufferView":165,"componentType":5126,"count":20,"type":"VEC4"},{"bufferView":166,"componentType":5126,"count":21,"type":"SCALAR","min":[0],"max":[0.9166666865348816]},{"bufferView":167,"componentType":5126,"count":21,"type":"VEC4"},{"bufferView":168,"componentType":5126,"count":22,"type":"SCALAR","min":[0],"max":[0.9166666865348816]},{"bufferView":169,"componentType":5126,"count":22,"type":"VEC4"},{"bufferView":170,"componentType":5126,"count":11,"type":"SCALAR","min":[0],"max":[0.9166666865348816]},{"bufferView":171,"componentType":5126,"count":11,"type":"VEC4"},{"bufferView":172,"componentType":5126,"count":29,"type":"SCALAR","min":[0],"max":[1.3333333730697632]},{"bufferView":173,"componentType":5126,"count":29,"type":"VEC3"},{"bufferView":174,"componentType":5126,"count":7,"type":"SCALAR","min":[0],"max":[1.3333333730697632]},{"bufferView":175,"componentType":5126,"count":7,"type":"VEC4"},{"bufferView":176,"componentType":5126,"count":6,"type":"SCALAR","min":[0],"max":[1.3333333730697632]},{"bufferView":177,"componentType":5126,"count":6,"type":"VEC4"},{"bufferView":178,"componentType":5126,"count":9,"type":"SCALAR","min":[0],"max":[1.3333333730697632]},{"bufferView":179,"componentType":5126,"count":9,"type":"VEC4"},{"bufferView":180,"componentType":5126,"count":7,"type":"SCALAR","min":[0],"max":[1.3333333730697632]},{"bufferView":181,"componentType":5126,"count":7,"type":"VEC4"},{"bufferView":182,"componentType":5126,"count":9,"type":"SCALAR","min":[0],"max":[1.3333333730697632]},{"bufferView":183,"componentType":5126,"count":9,"type":"VEC4"},{"bufferView":184,"componentType":5126,"count":3,"type":"SCALAR","min":[0],"max":[1.3333333730697632]},{"bufferView":185,"componentType":5126,"count":3,"type":"VEC4"},{"bufferView":186,"componentType":5126,"count":14,"type":"SCALAR","min":[0],"max":[1.3333333730697632]},{"bufferView":187,"componentType":5126,"count":14,"type":"VEC4"},{"bufferView":188,"componentType":5126,"count":13,"type":"SCALAR","min":[0],"max":[1.3333333730697632]},{"bufferView":189,"componentType":5126,"count":13,"type":"VEC4"},{"bufferView":190,"componentType":5126,"count":13,"type":"SCALAR","min":[0],"max":[1.3333333730697632]},{"bufferView":191,"componentType":5126,"count":13,"type":"VEC4"},{"bufferView":192,"componentType":5126,"count":7,"type":"SCALAR","min":[0],"max":[1.3333333730697632]},{"bufferView":193,"componentType":5126,"count":7,"type":"VEC4"},{"bufferView":194,"componentType":5126,"count":15,"type":"SCALAR","min":[0],"max":[1.3333333730697632]},{"bufferView":195,"componentType":5126,"count":15,"type":"VEC4"},{"bufferView":196,"componentType":5126,"count":13,"type":"SCALAR","min":[0],"max":[1.3333333730697632]},{"bufferView":197,"componentType":5126,"count":13,"type":"VEC4"},{"bufferView":198,"componentType":5126,"count":11,"type":"SCALAR","min":[0],"max":[1.3333333730697632]},{"bufferView":199,"componentType":5126,"count":11,"type":"VEC4"},{"bufferView":200,"componentType":5126,"count":27,"type":"SCALAR","min":[0],"max":[1.3333333730697632]},{"bufferView":201,"componentType":5126,"count":27,"type":"VEC4"},{"bufferView":202,"componentType":5126,"count":32,"type":"SCALAR","min":[0],"max":[1.3333333730697632]},{"bufferView":203,"componentType":5126,"count":32,"type":"VEC4"},{"bufferView":204,"componentType":5126,"count":21,"type":"SCALAR","min":[0],"max":[1.3333333730697632]},{"bufferView":205,"componentType":5126,"count":21,"type":"VEC4"},{"bufferView":206,"componentType":5126,"count":13,"type":"SCALAR","min":[0],"max":[1.3333333730697632]},{"bufferView":207,"componentType":5126,"count":13,"type":"VEC4"},{"bufferView":208,"componentType":5126,"count":29,"type":"SCALAR","min":[0],"max":[1.3333333730697632]},{"bufferView":209,"componentType":5126,"count":29,"type":"VEC4"},{"bufferView":210,"componentType":5126,"count":31,"type":"SCALAR","min":[0],"max":[1.3333333730697632]},{"bufferView":211,"componentType":5126,"count":31,"type":"VEC4"},{"bufferView":212,"componentType":5126,"count":26,"type":"SCALAR","min":[0],"max":[1.3333333730697632]},{"bufferView":213,"componentType":5126,"count":26,"type":"VEC4"},{"bufferView":214,"componentType":5126,"count":14,"type":"SCALAR","min":[0],"max":[1.3333333730697632]},{"bufferView":215,"componentType":5126,"count":14,"type":"VEC4"}],"bufferViews":[{"buffer":0,"byteOffset":0,"byteLength":40680},{"buffer":0,"byteOffset":40680,"byteLength":40680},{"buffer":0,"byteOffset":81360,"byteLength":27120},{"buffer":0,"byteOffset":108480,"byteLength":27120},{"buffer":0,"byteOffset":135600,"byteLength":27120},{"buffer":0,"byteOffset":162720,"byteLength":54240},{"buffer":0,"byteOffset":216960,"byteLength":34386},{"buffer":0,"byteOffset":251346,"byteLength":1472},{"buffer":0,"byteOffset":252818,"byteLength":172},{"buffer":0,"byteOffset":252990,"byteLength":516},{"buffer":0,"byteOffset":253506,"byteLength":36},{"buffer":0,"byteOffset":253542,"byteLength":144},{"buffer":0,"byteOffset":253686,"byteLength":36},{"buffer":0,"byteOffset":253722,"byteLength":144},{"buffer":0,"byteOffset":253866,"byteLength":40},{"buffer":0,"byteOffset":253906,"byteLength":160},{"buffer":0,"byteOffset":254066,"byteLength":24},{"buffer":0,"byteOffset":254090,"byteLength":96},{"buffer":0,"byteOffset":254186,"byteLength":20},{"buffer":0,"byteOffset":254206,"byteLength":80},{"buffer":0,"byteOffset":254286,"byteLength":8},{"buffer":0,"byteOffset":254294,"byteLength":32},{"buffer":0,"byteOffset":254326,"byteLength":24},{"buffer":0,"byteOffset":254350,"byteLength":96},{"buffer":0,"byteOffset":254446,"byteLength":8},{"buffer":0,"byteOffset":254454,"byteLength":32},{"buffer":0,"byteOffset":254486,"byteLength":32},{"buffer":0,"byteOffset":254518,"byteLength":36},{"buffer":0,"byteOffset":254554,"byteLength":144},{"buffer":0,"byteOffset":254698,"byteLength":56},{"buffer":0,"byteOffset":254754,"byteLength":224},{"buffer":0,"byteOffset":254978,"byteLength":32},{"buffer":0,"byteOffset":255010,"byteLength":100},{"buffer":0,"byteOffset":255110,"byteLength":400},{"buffer":0,"byteOffset":255510,"byteLength":92},{"buffer":0,"byteOffset":255602,"byteLength":368},{"buffer":0,"byteOffset":255970,"byteLength":132},{"buffer":0,"byteOffset":256102,"byteLength":528},{"buffer":0,"byteOffset":256630,"byteLength":80},{"buffer":0,"byteOffset":256710,"byteLength":320},{"buffer":0,"byteOffset":257030,"byteLength":104},{"buffer":0,"byteOffset":257134,"byteLength":416},{"buffer":0,"byteOffset":257550,"byteLength":108},{"buffer":0,"byteOffset":257658,"byteLength":432},{"buffer":0,"byteOffset":258090,"byteLength":132},{"buffer":0,"byteOffset":258222,"byteLength":528},{"buffer":0,"byteOffset":258750,"byteLength":72},{"buffer":0,"byteOffset":258822,"byteLength":288},{"buffer":0,"byteOffset":259110,"byteLength":28},{"buffer":0,"byteOffset":259138,"byteLength":84},{"buffer":0,"byteOffset":259222,"byteLength":12},{"buffer":0,"byteOffset":259234,"byteLength":48},{"buffer":0,"byteOffset":259282,"byteLength":16},{"buffer":0,"byteOffset":259298,"byteLength":64},{"buffer":0,"byteOffset":259362,"byteLength":16},{"buffer":0,"byteOffset":259378,"byteLength":64},{"buffer":0,"byteOffset":259442,"byteLength":12},{"buffer":0,"byteOffset":259454,"byteLength":48},{"buffer":0,"byteOffset":259502,"byteLength":32},{"buffer":0,"byteOffset":259534,"byteLength":128},{"buffer":0,"byteOffset":259662,"byteLength":28},{"buffer":0,"byteOffset":259690,"byteLength":112},{"buffer":0,"byteOffset":259802,"byteLength":16},{"buffer":0,"byteOffset":259818,"byteLength":64},{"buffer":0,"byteOffset":259882,"byteLength":28},{"buffer":0,"byteOffset":259910,"byteLength":112},{"buffer":0,"byteOffset":260022,"byteLength":16},{"buffer":0,"byteOffset":260038,"byteLength":64},{"buffer":0,"byteOffset":260102,"byteLength":28},{"buffer":0,"byteOffset":260130,"byteLength":112},{"buffer":0,"byteOffset":260242,"byteLength":16},{"buffer":0,"byteOffset":260258,"byteLength":64},{"buffer":0,"byteOffset":260322,"byteLength":8},{"buffer":0,"byteOffset":260330,"byteLength":32},{"buffer":0,"byteOffset":260362,"byteLength":20},{"buffer":0,"byteOffset":260382,"byteLength":80},{"buffer":0,"byteOffset":260462,"byteLength":20},{"buffer":0,"byteOffset":260482,"byteLength":80},{"buffer":0,"byteOffset":260562,"byteLength":12},{"buffer":0,"byteOffset":260574,"byteLength":48},{"buffer":0,"byteOffset":260622,"byteLength":16},{"buffer":0,"byteOffset":260638,"byteLength":64},{"buffer":0,"byteOffset":260702,"byteLength":20},{"buffer":0,"byteOffset":260722,"byteLength":80},{"buffer":0,"byteOffset":260802,"byteLength":12},{"buffer":0,"byteOffset":260814,"byteLength":48},{"buffer":0,"byteOffset":260862,"byteLength":28},{"buffer":0,"byteOffset":260890,"byteLength":112},{"buffer":0,"byteOffset":261002,"byteLength":24},{"buffer":0,"byteOffset":261026,"byteLength":96},{"buffer":0,"byteOffset":261122,"byteLength":60},{"buffer":0,"byteOffset":261182,"byteLength":180},{"buffer":0,"byteOffset":261362,"byteLength":24},{"buffer":0,"byteOffset":261386,"byteLength":96},{"buffer":0,"byteOffset":261482,"byteLength":24},{"buffer":0,"byteOffset":261506,"byteLength":96},{"buffer":0,"byteOffset":261602,"byteLength":24},{"buffer":0,"byteOffset":261626,"byteLength":96},{"buffer":0,"byteOffset":261722,"byteLength":24},{"buffer":0,"byteOffset":261746,"byteLength":96},{"buffer":0,"byteOffset":261842,"byteLength":36},{"buffer":0,"byteOffset":261878,"byteLength":144},{"buffer":0,"byteOffset":262022,"byteLength":20},{"buffer":0,"byteOffset":262042,"byteLength":80},{"buffer":0,"byteOffset":262122,"byteLength":44},{"buffer":0,"byteOffset":262166,"byteLength":176},{"buffer":0,"byteOffset":262342,"byteLength":52},{"buffer":0,"byteOffset":262394,"byteLength":208},{"buffer":0,"byteOffset":262602,"byteLength":8},{"buffer":0,"byteOffset":262610,"byteLength":32},{"buffer":0,"byteOffset":262642,"byteLength":20},{"buffer":0,"byteOffset":262662,"byteLength":80},{"buffer":0,"byteOffset":262742,"byteLength":32},{"buffer":0,"byteOffset":262774,"byteLength":128},{"buffer":0,"byteOffset":262902,"byteLength":28},{"buffer":0,"byteOffset":262930,"byteLength":112},{"buffer":0,"byteOffset":263042,"byteLength":32},{"buffer":0,"byteOffset":263074,"byteLength":48},{"buffer":0,"byteOffset":263122,"byteLength":192},{"buffer":0,"byteOffset":263314,"byteLength":48},{"buffer":0,"byteOffset":263362,"byteLength":192},{"buffer":0,"byteOffset":263554,"byteLength":20},{"buffer":0,"byteOffset":263574,"byteLength":80},{"buffer":0,"byteOffset":263654,"byteLength":44},{"buffer":0,"byteOffset":263698,"byteLength":176},{"buffer":0,"byteOffset":263874,"byteLength":48},{"buffer":0,"byteOffset":263922,"byteLength":192},{"buffer":0,"byteOffset":264114,"byteLength":24},{"buffer":0,"byteOffset":264138,"byteLength":96},{"buffer":0,"byteOffset":264234,"byteLength":92},{"buffer":0,"byteOffset":264326,"byteLength":276},{"buffer":0,"byteOffset":264602,"byteLength":32},{"buffer":0,"byteOffset":264634,"byteLength":128},{"buffer":0,"byteOffset":264762,"byteLength":60},{"buffer":0,"byteOffset":264822,"byteLength":240},{"buffer":0,"byteOffset":265062,"byteLength":84},{"buffer":0,"byteOffset":265146,"byteLength":336},{"buffer":0,"byteOffset":265482,"byteLength":76},{"buffer":0,"byteOffset":265558,"byteLength":304},{"buffer":0,"byteOffset":265862,"byteLength":72},{"buffer":0,"byteOffset":265934,"byteLength":288},{"buffer":0,"byteOffset":266222,"byteLength":16},{"buffer":0,"byteOffset":266238,"byteLength":64},{"buffer":0,"byteOffset":266302,"byteLength":64},{"buffer":0,"byteOffset":266366,"byteLength":256},{"buffer":0,"byteOffset":266622,"byteLength":76},{"buffer":0,"byteOffset":266698,"byteLength":304},{"buffer":0,"byteOffset":267002,"byteLength":8},{"buffer":0,"byteOffset":267010,"byteLength":32},{"buffer":0,"byteOffset":267042,"byteLength":20},{"buffer":0,"byteOffset":267062,"byteLength":80},{"buffer":0,"byteOffset":267142,"byteLength":64},{"buffer":0,"byteOffset":267206,"byteLength":256},{"buffer":0,"byteOffset":267462,"byteLength":76},{"buffer":0,"byteOffset":267538,"byteLength":304},{"buffer":0,"byteOffset":267842,"byteLength":32},{"buffer":0,"byteOffset":267874,"byteLength":80},{"buffer":0,"byteOffset":267954,"byteLength":320},{"buffer":0,"byteOffset":268274,"byteLength":88},{"buffer":0,"byteOffset":268362,"byteLength":352},{"buffer":0,"byteOffset":268714,"byteLength":88},{"buffer":0,"byteOffset":268802,"byteLength":352},{"buffer":0,"byteOffset":269154,"byteLength":40},{"buffer":0,"byteOffset":269194,"byteLength":160},{"buffer":0,"byteOffset":269354,"byteLength":80},{"buffer":0,"byteOffset":269434,"byteLength":320},{"buffer":0,"byteOffset":269754,"byteLength":84},{"buffer":0,"byteOffset":269838,"byteLength":336},{"buffer":0,"byteOffset":270174,"byteLength":88},{"buffer":0,"byteOffset":270262,"byteLength":352},{"buffer":0,"byteOffset":270614,"byteLength":44},{"buffer":0,"byteOffset":270658,"byteLength":176},{"buffer":0,"byteOffset":270834,"byteLength":116},{"buffer":0,"byteOffset":270950,"byteLength":348},{"buffer":0,"byteOffset":271298,"byteLength":28},{"buffer":0,"byteOffset":271326,"byteLength":112},{"buffer":0,"byteOffset":271438,"byteLength":24},{"buffer":0,"byteOffset":271462,"byteLength":96},{"buffer":0,"byteOffset":271558,"byteLength":36},{"buffer":0,"byteOffset":271594,"byteLength":144},{"buffer":0,"byteOffset":271738,"byteLength":28},{"buffer":0,"byteOffset":271766,"byteLength":112},{"buffer":0,"byteOffset":271878,"byteLength":36},{"buffer":0,"byteOffset":271914,"byteLength":144},{"buffer":0,"byteOffset":272058,"byteLength":12},{"buffer":0,"byteOffset":272070,"byteLength":48},{"buffer":0,"byteOffset":272118,"byteLength":56},{"buffer":0,"byteOffset":272174,"byteLength":224},{"buffer":0,"byteOffset":272398,"byteLength":52},{"buffer":0,"byteOffset":272450,"byteLength":208},{"buffer":0,"byteOffset":272658,"byteLength":52},{"buffer":0,"byteOffset":272710,"byteLength":208},{"buffer":0,"byteOffset":272918,"byteLength":28},{"buffer":0,"byteOffset":272946,"byteLength":112},{"buffer":0,"byteOffset":273058,"byteLength":60},{"buffer":0,"byteOffset":273118,"byteLength":240},{"buffer":0,"byteOffset":273358,"byteLength":52},{"buffer":0,"byteOffset":273410,"byteLength":208},{"buffer":0,"byteOffset":273618,"byteLength":44},{"buffer":0,"byteOffset":273662,"byteLength":176},{"buffer":0,"byteOffset":273838,"byteLength":108},{"buffer":0,"byteOffset":273946,"byteLength":432},{"buffer":0,"byteOffset":274378,"byteLength":128},{"buffer":0,"byteOffset":274506,"byteLength":512},{"buffer":0,"byteOffset":275018,"byteLength":84},{"buffer":0,"byteOffset":275102,"byteLength":336},{"buffer":0,"byteOffset":275438,"byteLength":52},{"buffer":0,"byteOffset":275490,"byteLength":208},{"buffer":0,"byteOffset":275698,"byteLength":116},{"buffer":0,"byteOffset":275814,"byteLength":464},{"buffer":0,"byteOffset":276278,"byteLength":124},{"buffer":0,"byteOffset":276402,"byteLength":496},{"buffer":0,"byteOffset":276898,"byteLength":104},{"buffer":0,"byteOffset":277002,"byteLength":416},{"buffer":0,"byteOffset":277418,"byteLength":56},{"buffer":0,"byteOffset":277474,"byteLength":224}],"buffers":[{"byteLength":277698,"uri":"data:application/octet-stream;base64,"}],"materials":[{"doubleSided":true,"name":"M_Main","pbrMetallicRoughness":{"baseColorFactor":[0.799098551273346,0.40197816491127014,0.04231153056025505,1],"metallicFactor":0,"roughnessFactor":0.5}}],"meshes":[{"name":"Mannequin","primitives":[{"attributes":{"POSITION":0,"NORMAL":1,"TEXCOORD_0":2,"TEXCOORD_1":3,"JOINTS_0":4,"WEIGHTS_0":5},"indices":6,"material":0}]}],"nodes":[{"name":"DEF-head","translation":[3.8571792481745856e-15,0.08258674293756485,-2.0023435354232788e-8],"rotation":[-0.07867428660392761,1.4970561679206185e-8,-1.0633153912920079e-8,0.9969003796577454],"scale":[1,0.9999999403953552,1]},{"name":"DEF-neck","translation":[2.3782082650170315e-15,0.17289090156555176,-2.0489096641540527e-8],"rotation":[0.11098597198724747,-4.880538195806139e-9,1.3878556082147497e-8,0.9938219785690308],"scale":[1,0.9999999403953552,0.9999999403953552],"children":[0]},{"name":"DEF-hand.L","translation":[3.1413728152074327e-7,0.2726406157016754,-7.710582394793164e-9],"rotation":[-0.008619682863354683,-3.993365282894956e-7,-2.1422658846859122e-7,0.9999628663063049]},{"name":"DEF-forearm.L","translation":[-1.1901104812750418e-7,0.27444028854370117,1.1048541637137532e-8],"rotation":[0.01718227006494999,-0.000020337443856988102,5.830246436744346e-7,0.9998524188995361],"scale":[1,0.9999999403953552,1],"children":[2]},{"name":"DEF-upper_arm.L","translation":[-0.030072327703237534,0.21858172118663788,-0.016968311741948128],"rotation":[0.18026961386203766,0.6838499903678894,-0.1798364520072937,0.6837477087974548],"scale":[1,1.000000238418579,1],"children":[3]},{"name":"DEF-shoulder.L","translation":[0.018799979239702225,0.1405538022518158,0.08089503645896912],"rotation":[-0.6040206551551819,-0.345102995634079,-0.35671770572662354,0.6235507130622864],"scale":[1.0000001192092896,1,1],"children":[4]},{"name":"DEF-hand.R","translation":[-1.1331076166243292e-7,0.2726404368877411,3.2101823421726294e-9],"rotation":[-0.00861973688006401,4.768189114656707e-7,-4.7609525211100845e-9,0.9999628663063049],"scale":[1,0.9999999403953552,1]},{"name":"DEF-forearm.R","translation":[8.920900995690317e-8,0.2744402289390564,-1.4075340004637837e-8],"rotation":[0.017182370647788048,0.000020517160010058433,-3.6275702086641104e-7,0.9998524188995361],"scale":[1,1,0.9999999403953552],"children":[6]},{"name":"DEF-upper_arm.R","translation":[0.030072307214140892,0.21858170628547668,-0.016968434676527977],"rotation":[0.18026971817016602,-0.683850109577179,0.1798364669084549,0.6837475895881653],"scale":[1,1,0.9999999403953552],"children":[7]},{"name":"DEF-shoulder.R","translation":[-0.018800001591444016,0.1405538022518158,0.08089502900838852],"rotation":[-0.6040206551551819,0.3451029360294342,0.35671761631965637,0.6235508322715759],"scale":[0.9999999403953552,0.9999999403953552,0.9999998807907104],"children":[8]},{"name":"DEF-spine.003","translation":[5.036120679381944e-16,0.14127187430858612,9.313225746154785e-10],"rotation":[-0.00026857294142246246,-5.309264139441439e-9,-3.632747574977557e-11,1],"scale":[1,0.9999999403953552,1],"children":[1,5,9]},{"name":"DEF-spine.002","translation":[5.462623473543758e-15,0.12403508275747299,-2.7153873816132545e-8],"rotation":[-0.07727984338998795,-6.326933288391956e-8,-1.576790076285306e-8,0.9970094561576843],"scale":[1,0.9999999403953552,0.9999999403953552],"children":[10]},{"name":"DEF-spine.001","translation":[-5.828670879282072e-16,0.1381763368844986,1.7695128917694092e-8],"rotation":[-0.06470265239477158,1.1859754067700123e-7,-9.617974860987033e-9,0.9979045987129211],"scale":[1,0.9999999403953552,1],"children":[11]},{"name":"DEF-toe.L","translation":[1.8681021174415946e-8,0.17330090701580048,-2.731394488364458e-8],"rotation":[0.00013709688209928572,-0.9643067121505737,0.2647874355316162,0.0004995493218302727],"scale":[1,1,0.9999999403953552]},{"name":"DEF-foot.L","translation":[-7.291419024113566e-9,0.4294799864292145,-2.9831426218152046e-10],"rotation":[-0.5290713906288147,-0.00032809414551593363,0.0003434528480283916,0.8485772013664246],"scale":[1,0.9999999403953552,1],"children":[13]},{"name":"DEF-shin.L","translation":[1.1145173672844066e-8,0.40030965209007263,-1.0012035644990647e-10],"rotation":[0.03658587113022804,-0.0001311877858825028,-0.000004798114332515979,0.9993305206298828],"scale":[0.9999999403953552,1,0.9999999403953552],"children":[14]},{"name":"DEF-thigh.L","translation":[0.08899997919797897,0.027770835906267166,0.04602379724383354],"rotation":[0.9924845099449158,3.6208072096144406e-9,2.9366505671646337e-8,0.12237043678760529],"scale":[1,1,1.0000014305114746],"children":[15]},{"name":"DEF-toe.R","translation":[-1.1192241800017655e-8,0.1733008623123169,-2.8572685550898314e-8],"rotation":[0.00013709691120311618,-0.964306652545929,0.2647874653339386,0.0004995492636226118],"scale":[1,0.9999997019767761,0.9999997615814209]},{"name":"DEF-foot.R","translation":[2.250203579023946e-8,0.42947983741760254,-5.293259164318442e-9],"rotation":[-0.5290714502334595,-0.000328094232827425,0.0003434528480283916,0.8485772013664246],"scale":[1,1,0.9999999403953552],"children":[17]},{"name":"DEF-shin.R","translation":[-2.6508853778750563e-8,0.4003097712993622,4.610640758073714e-10],"rotation":[0.03658587113022804,-0.00013122690143063664,-0.000004796680514118634,0.9993305206298828],"scale":[0.9999999403953552,0.9999999403953552,0.9999999403953552],"children":[18]},{"name":"DEF-thigh.R","translation":[-0.08899997919797897,0.027770835906267166,0.04602379351854324],"rotation":[0.9924845099449158,8.414732022288263e-9,6.824755161005669e-8,0.12237042933702469],"scale":[1,1,1.0000016689300537],"children":[19]},{"name":"DEF-hips","translation":[0,0.05010002851486206,0.916700005531311],"rotation":[0.7904684543609619,9.12700137689626e-9,1.1778897857084303e-8,0.6125028133392334],"scale":[1,0.9999999403953552,0.9999999403953552],"children":[12,16,20]},{"name":"root","rotation":[-0.7071067690849304,0,0,0.7071067690849304],"children":[21]},{"name":"Mannequin","mesh":0,"skin":0},{"name":"Rig","children":[23,22]}],"skins":[{"name":"Rig","joints":[22,21,12,11,10,1,0,5,4,3,2,9,8,7,6,16,15,14,13,20,19,18,17],"inverseBindMatrices":7}],"animations":[{"name":"Crouch_Fwd_Loop","samplers":[{"input":8,"output":9,"interpolation":"LINEAR"},{"input":10,"output":11,"interpolation":"LINEAR"},{"input":12,"output":13,"interpolation":"LINEAR"},{"input":14,"output":15,"interpolation":"LINEAR"},{"input":16,"output":17,"interpolation":"LINEAR"},{"input":18,"output":19,"interpolation":"LINEAR"},{"input":20,"output":21,"interpolation":"STEP"},{"input":22,"output":23,"interpolation":"LINEAR"},{"input":24,"output":25,"interpolation":"LINEAR"},{"input":20,"output":26,"interpolation":"STEP"},{"input":27,"output":28,"interpolation":"LINEAR"},{"input":29,"output":30,"interpolation":"LINEAR"},{"input":20,"output":31,"interpolation":"STEP"},{"input":32,"output":33,"interpolation":"LINEAR"},{"input":34,"output":35,"interpolation":"LINEAR"},{"input":36,"output":37,"interpolation":"LINEAR"},{"input":38,"output":39,"interpolation":"LINEAR"},{"input":40,"output":41,"interpolation":"LINEAR"},{"input":42,"output":43,"interpolation":"LINEAR"},{"input":44,"output":45,"interpolation":"LINEAR"},{"input":46,"output":47,"interpolation":"LINEAR"}],"channels":[{"sampler":0,"target":{"node":21,"path":"translation"}},{"sampler":1,"target":{"node":21,"path":"rotation"}},{"sampler":2,"target":{"node":11,"path":"rotation"}},{"sampler":3,"target":{"node":10,"path":"rotation"}},{"sampler":4,"target":{"node":1,"path":"rotation"}},{"sampler":5,"target":{"node":0,"path":"rotation"}},{"sampler":6,"target":{"node":5,"path":"rotation"}},{"sampler":7,"target":{"node":4,"path":"rotation"}},{"sampler":8,"target":{"node":3,"path":"rotation"}},{"sampler":9,"target":{"node":2,"path":"rotation"}},{"sampler":10,"target":{"node":8,"path":"rotation"}},{"sampler":11,"target":{"node":7,"path":"rotation"}},{"sampler":12,"target":{"node":6,"path":"rotation"}},{"sampler":13,"target":{"node":16,"path":"rotation"}},{"sampler":14,"target":{"node":15,"path":"rotation"}},{"sampler":15,"target":{"node":14,"path":"rotation"}},{"sampler":16,"target":{"node":13,"path":"rotation"}},{"sampler":17,"target":{"node":20,"path":"rotation"}},{"sampler":18,"target":{"node":19,"path":"rotation"}},{"sampler":19,"target":{"node":18,"path":"rotation"}},{"sampler":20,"target":{"node":17,"path":"rotation"}}]},{"name":"Crouch_Idle_Loop","samplers":[{"input":48,"output":49,"interpolation":"LINEAR"},{"input":50,"output":51,"interpolation":"LINEAR"},{"input":52,"output":53,"interpolation":"LINEAR"},{"input":54,"output":55,"interpolation":"LINEAR"},{"input":56,"output":57,"interpolation":"LINEAR"},{"input":58,"output":59,"interpolation":"LINEAR"},{"input":60,"output":61,"interpolation":"LINEAR"},{"input":62,"output":63,"interpolation":"LINEAR"},{"input":64,"output":65,"interpolation":"LINEAR"},{"input":66,"output":67,"interpolation":"LINEAR"},{"input":68,"output":69,"interpolation":"LINEAR"},{"input":70,"output":71,"interpolation":"LINEAR"},{"input":72,"output":73,"interpolation":"LINEAR"},{"input":74,"output":75,"interpolation":"LINEAR"},{"input":76,"output":77,"interpolation":"LINEAR"},{"input":78,"output":79,"interpolation":"LINEAR"},{"input":80,"output":81,"interpolation":"LINEAR"},{"input":82,"output":83,"interpolation":"LINEAR"},{"input":84,"output":85,"interpolation":"LINEAR"},{"input":86,"output":87,"interpolation":"LINEAR"},{"input":88,"output":89,"interpolation":"LINEAR"}],"channels":[{"sampler":0,"target":{"node":21,"path":"translation"}},{"sampler":1,"target":{"node":21,"path":"rotation"}},{"sampler":2,"target":{"node":11,"path":"rotation"}},{"sampler":3,"target":{"node":10,"path":"rotation"}},{"sampler":4,"target":{"node":1,"path":"rotation"}},{"sampler":5,"target":{"node":0,"path":"rotation"}},{"sampler":6,"target":{"node":5,"path":"rotation"}},{"sampler":7,"target":{"node":4,"path":"rotation"}},{"sampler":8,"target":{"node":3,"path":"rotation"}},{"sampler":9,"target":{"node":2,"path":"rotation"}},{"sampler":10,"target":{"node":9,"path":"rotation"}},{"sampler":11,"target":{"node":8,"path":"rotation"}},{"sampler":12,"target":{"node":7,"path":"rotation"}},{"sampler":13,"target":{"node":6,"path":"rotation"}},{"sampler":14,"target":{"node":16,"path":"rotation"}},{"sampler":15,"target":{"node":15,"path":"rotation"}},{"sampler":16,"target":{"node":14,"path":"rotation"}},{"sampler":17,"target":{"node":20,"path":"rotation"}},{"sampler":18,"target":{"node":19,"path":"rotation"}},{"sampler":19,"target":{"node":18,"path":"rotation"}},{"sampler":20,"target":{"node":17,"path":"rotation"}}]},{"name":"Idle_Loop","samplers":[{"input":90,"output":91,"interpolation":"LINEAR"},{"input":92,"output":93,"interpolation":"LINEAR"},{"input":94,"output":95,"interpolation":"LINEAR"},{"input":96,"output":97,"interpolation":"LINEAR"},{"input":98,"output":99,"interpolation":"LINEAR"},{"input":100,"output":101,"interpolation":"LINEAR"},{"input":102,"output":103,"interpolation":"LINEAR"},{"input":104,"output":105,"interpolation":"LINEAR"},{"input":106,"output":107,"interpolation":"LINEAR"},{"input":108,"output":109,"interpolation":"LINEAR"},{"input":110,"output":111,"interpolation":"LINEAR"},{"input":112,"output":113,"interpolation":"LINEAR"},{"input":114,"output":115,"interpolation":"LINEAR"},{"input":108,"output":116,"interpolation":"LINEAR"},{"input":117,"output":118,"interpolation":"LINEAR"},{"input":119,"output":120,"interpolation":"LINEAR"},{"input":121,"output":122,"interpolation":"LINEAR"},{"input":123,"output":124,"interpolation":"LINEAR"},{"input":125,"output":126,"interpolation":"LINEAR"},{"input":127,"output":128,"interpolation":"LINEAR"}],"channels":[{"sampler":0,"target":{"node":21,"path":"translation"}},{"sampler":1,"target":{"node":21,"path":"rotation"}},{"sampler":2,"target":{"node":11,"path":"rotation"}},{"sampler":3,"target":{"node":10,"path":"rotation"}},{"sampler":4,"target":{"node":1,"path":"rotation"}},{"sampler":5,"target":{"node":0,"path":"rotation"}},{"sampler":6,"target":{"node":5,"path":"rotation"}},{"sampler":7,"target":{"node":4,"path":"rotation"}},{"sampler":8,"target":{"node":3,"path":"rotation"}},{"sampler":9,"target":{"node":2,"path":"rotation"}},{"sampler":10,"target":{"node":9,"path":"rotation"}},{"sampler":11,"target":{"node":8,"path":"rotation"}},{"sampler":12,"target":{"node":7,"path":"rotation"}},{"sampler":13,"target":{"node":6,"path":"rotation"}},{"sampler":14,"target":{"node":16,"path":"rotation"}},{"sampler":15,"target":{"node":15,"path":"rotation"}},{"sampler":16,"target":{"node":14,"path":"rotation"}},{"sampler":17,"target":{"node":20,"path":"rotation"}},{"sampler":18,"target":{"node":19,"path":"rotation"}},{"sampler":19,"target":{"node":18,"path":"rotation"}}]},{"name":"Jog_Fwd_Loop","samplers":[{"input":129,"output":130,"interpolation":"LINEAR"},{"input":131,"output":132,"interpolation":"LINEAR"},{"input":133,"output":134,"interpolation":"LINEAR"},{"input":135,"output":136,"interpolation":"LINEAR"},{"input":137,"output":138,"interpolation":"LINEAR"},{"input":139,"output":140,"interpolation":"LINEAR"},{"input":141,"output":142,"interpolation":"LINEAR"},{"input":143,"output":144,"interpolation":"LINEAR"},{"input":145,"output":146,"interpolation":"LINEAR"},{"input":147,"output":148,"interpolation":"LINEAR"},{"input":149,"output":150,"interpolation":"LINEAR"},{"input":151,"output":152,"interpolation":"LINEAR"},{"input":153,"output":154,"interpolation":"LINEAR"},{"input":147,"output":155,"interpolation":"LINEAR"},{"input":156,"output":157,"interpolation":"LINEAR"},{"input":158,"output":159,"interpolation":"LINEAR"},{"input":160,"output":161,"interpolation":"LINEAR"},{"input":162,"output":163,"interpolation":"LINEAR"},{"input":164,"output":165,"interpolation":"LINEAR"},{"input":166,"output":167,"interpolation":"LINEAR"},{"input":168,"output":169,"interpolation":"LINEAR"},{"input":170,"output":171,"interpolation":"LINEAR"}],"channels":[{"sampler":0,"target":{"node":21,"path":"translation"}},{"sampler":1,"target":{"node":21,"path":"rotation"}},{"sampler":2,"target":{"node":11,"path":"rotation"}},{"sampler":3,"target":{"node":10,"path":"rotation"}},{"sampler":4,"target":{"node":1,"path":"rotation"}},{"sampler":5,"target":{"node":0,"path":"rotation"}},{"sampler":6,"target":{"node":5,"path":"rotation"}},{"sampler":7,"target":{"node":4,"path":"rotation"}},{"sampler":8,"target":{"node":3,"path":"rotation"}},{"sampler":9,"target":{"node":2,"path":"rotation"}},{"sampler":10,"target":{"node":9,"path":"rotation"}},{"sampler":11,"target":{"node":8,"path":"rotation"}},{"sampler":12,"target":{"node":7,"path":"rotation"}},{"sampler":13,"target":{"node":6,"path":"rotation"}},{"sampler":14,"target":{"node":16,"path":"rotation"}},{"sampler":15,"target":{"node":15,"path":"rotation"}},{"sampler":16,"target":{"node":14,"path":"rotation"}},{"sampler":17,"target":{"node":13,"path":"rotation"}},{"sampler":18,"target":{"node":20,"path":"rotation"}},{"sampler":19,"target":{"node":19,"path":"rotation"}},{"sampler":20,"target":{"node":18,"path":"rotation"}},{"sampler":21,"target":{"node":17,"path":"rotation"}}]},{"name":"Walk_Loop","samplers":[{"input":172,"output":173,"interpolation":"LINEAR"},{"input":174,"output":175,"interpolation":"LINEAR"},{"input":176,"output":177,"interpolation":"LINEAR"},{"input":178,"output":179,"interpolation":"LINEAR"},{"input":180,"output":181,"interpolation":"LINEAR"},{"input":182,"output":183,"interpolation":"LINEAR"},{"input":184,"output":185,"interpolation":"LINEAR"},{"input":186,"output":187,"interpolation":"LINEAR"},{"input":188,"output":189,"interpolation":"LINEAR"},{"input":190,"output":191,"interpolation":"LINEAR"},{"input":192,"output":193,"interpolation":"LINEAR"},{"input":194,"output":195,"interpolation":"LINEAR"},{"input":196,"output":197,"interpolation":"LINEAR"},{"input":198,"output":199,"interpolation":"LINEAR"},{"input":200,"output":201,"interpolation":"LINEAR"},{"input":202,"output":203,"interpolation":"LINEAR"},{"input":204,"output":205,"interpolation":"LINEAR"},{"input":206,"output":207,"interpolation":"LINEAR"},{"input":208,"output":209,"interpolation":"LINEAR"},{"input":210,"output":211,"interpolation":"LINEAR"},{"input":212,"output":213,"interpolation":"LINEAR"},{"input":214,"output":215,"interpolation":"LINEAR"}],"channels":[{"sampler":0,"target":{"node":21,"path":"translation"}},{"sampler":1,"target":{"node":21,"path":"rotation"}},{"sampler":2,"target":{"node":11,"path":"rotation"}},{"sampler":3,"target":{"node":10,"path":"rotation"}},{"sampler":4,"target":{"node":1,"path":"rotation"}},{"sampler":5,"target":{"node":0,"path":"rotation"}},{"sampler":6,"target":{"node":5,"path":"rotation"}},{"sampler":7,"target":{"node":4,"path":"rotation"}},{"sampler":8,"target":{"node":3,"path":"rotation"}},{"sampler":9,"target":{"node":2,"path":"rotation"}},{"sampler":10,"target":{"node":9,"path":"rotation"}},{"sampler":11,"target":{"node":8,"path":"rotation"}},{"sampler":12,"target":{"node":7,"path":"rotation"}},{"sampler":13,"target":{"node":6,"path":"rotation"}},{"sampler":14,"target":{"node":16,"path":"rotation"}},{"sampler":15,"target":{"node":15,"path":"rotation"}},{"sampler":16,"target":{"node":14,"path":"rotation"}},{"sampler":17,"target":{"node":13,"path":"rotation"}},{"sampler":18,"target":{"node":20,"path":"rotation"}},{"sampler":19,"target":{"node":19,"path":"rotation"}},{"sampler":20,"target":{"node":18,"path":"rotation"}},{"sampler":21,"target":{"node":17,"path":"rotation"}}]}],"scenes":[{"nodes":[24]}],"scene":0}