{"asset":{"version":"2.0","generator":"estella tools/make-rig-corpus.mjs"},"accessors":[{"bufferView":0,"componentType":5126,"count":504,"type":"VEC3","min":[-0.5694972276687622,-0.10521914064884186,-0.542184591293335],"max":[0.5694972276687622,1.2506611347198486,0.7114353179931641]},{"bufferView":1,"componentType":5126,"count":504,"type":"VEC3"},{"bufferView":2,"componentType":5126,"count":504,"type":"VEC2"},{"bufferView":3,"componentType":5123,"count":1440,"type":"SCALAR"},{"bufferView":4,"componentType":5126,"count":56,"type":"VEC3","min":[-0.4853677749633789,-1.1218448877334595,-0.38609376549720764],"max":[0.4853890538215637,0.02009989321231842,-0.043504904955625534]},{"bufferView":5,"componentType":5126,"count":56,"type":"VEC3"},{"bufferView":6,"componentType":5126,"count":56,"type":"VEC2"},{"bufferView":7,"componentType":5123,"count":252,"type":"SCALAR"},{"bufferView":8,"componentType":5126,"count":486,"type":"VEC3","min":[0.05208217352628708,0.9753050208091736,-0.16858598589897156],"max":[0.9712533354759216,1.271857500076294,0.14215171337127686]},{"bufferView":9,"componentType":5126,"count":486,"type":"VEC3"},{"bufferView":10,"componentType":5126,"count":486,"type":"VEC2"},{"bufferView":11,"componentType":5121,"count":486,"type":"VEC4"},{"bufferView":12,"componentType":5126,"count":486,"type":"VEC4"},{"bufferView":13,"componentType":5123,"count":1782,"type":"SCALAR"},{"bufferView":14,"componentType":5126,"count":486,"type":"VEC3","min":[-0.9712533354759216,0.9753050208091736,-0.16858598589897156],"max":[-0.05208217352628708,1.271857500076294,0.14215171337127686]},{"bufferView":15,"componentType":5126,"count":486,"type":"VEC3"},{"bufferView":16,"componentType":5126,"count":486,"type":"VEC2"},{"bufferView":17,"componentType":5121,"count":486,"type":"VEC4"},{"bufferView":18,"componentType":5126,"count":486,"type":"VEC4"},{"bufferView":19,"componentType":5123,"count":1782,"type":"SCALAR"},{"bufferView":20,"componentType":5126,"count":1141,"type":"VEC3","min":[-0.4020526111125946,0.37639936804771423,-0.3861368000507355],"max":[0.4020985960960388,1.2930715084075928,0.36555495858192444]},{"bufferView":21,"componentType":5126,"count":1141,"type":"VEC3"},{"bufferView":22,"componentType":5126,"count":1141,"type":"VEC2"},{"bufferView":23,"componentType":5121,"count":1141,"type":"VEC4"},{"bufferView":24,"componentType":5126,"count":1141,"type":"VEC4"},{"bufferView":25,"componentType":5123,"count":3156,"type":"SCALAR"},{"bufferView":26,"componentType":5126,"count":727,"type":"VEC3","min":[-0.5431593060493469,1.2158912420272827,-0.4852306544780731],"max":[0.5431733727455139,2.3145079612731934,0.5317936539649963]},{"bufferView":27,"componentType":5126,"count":727,"type":"VEC3"},{"bufferView":28,"componentType":5126,"count":727,"type":"VEC2"},{"bufferView":29,"componentType":5121,"count":727,"type":"VEC4"},{"bufferView":30,"componentType":5126,"count":727,"type":"VEC4"},{"bufferView":31,"componentType":5123,"count":2868,"type":"SCALAR"},{"bufferView":32,"componentType":5126,"count":438,"type":"VEC3","min":[0.048996586352586746,-0.000026527046429691836,-0.1314052939414978],"max":[0.28810352087020874,0.5291943550109863,0.29949238896369934]},{"bufferView":33,"componentType":5126,"count":438,"type":"VEC3"},{"bufferView":34,"componentType":5126,"count":438,"type":"VEC2"},{"bufferView":35,"componentType":5121,"count":438,"type":"VEC4"},{"bufferView":36,"componentType":5126,"count":438,"type":"VEC4"},{"bufferView":37,"componentType":5123,"count":1428,"type":"SCALAR"},{"bufferView":38,"componentType":5126,"count":438,"type":"VEC3","min":[-0.28810352087020874,-0.000026527046429691836,-0.1314052939414978],"max":[-0.048996586352586746,0.5291943550109863,0.29949238896369934]},{"bufferView":39,"componentType":5126,"count":438,"type":"VEC3"},{"bufferView":40,"componentType":5126,"count":438,"type":"VEC2"},{"bufferView":41,"componentType":5121,"count":438,"type":"VEC4"},{"bufferView":42,"componentType":5126,"count":438,"type":"VEC4"},{"bufferView":43,"componentType":5123,"count":1428,"type":"SCALAR"},{"bufferView":44,"componentType":5126,"count":41,"type":"MAT4"}],"bufferViews":[{"buffer":0,"byteOffset":0,"byteLength":6048},{"buffer":0,"byteOffset":6048,"byteLength":6048},{"buffer":0,"byteOffset":12096,"byteLength":4032},{"buffer":0,"byteOffset":16128,"byteLength":2880},{"buffer":0,"byteOffset":19008,"byteLength":672},{"buffer":0,"byteOffset":19680,"byteLength":672},{"buffer":0,"byteOffset":20352,"byteLength":448},{"buffer":0,"byteOffset":20800,"byteLength":504},{"buffer":0,"byteOffset":21304,"byteLength":5832},{"buffer":0,"byteOffset":27136,"byteLength":5832},{"buffer":0,"byteOffset":32968,"byteLength":3888},{"buffer":0,"byteOffset":36856,"byteLength":1944},{"buffer":0,"byteOffset":38800,"byteLength":7776},{"buffer":0,"byteOffset":46576,"byteLength":3564},{"buffer":0,"byteOffset":50140,"byteLength":5832},{"buffer":0,"byteOffset":55972,"byteLength":5832},{"buffer":0,"byteOffset":61804,"byteLength":3888},{"buffer":0,"byteOffset":65692,"byteLength":1944},{"buffer":0,"byteOffset":67636,"byteLength":7776},{"buffer":0,"byteOffset":75412,"byteLength":3564},{"buffer":0,"byteOffset":78976,"byteLength":13692},{"buffer":0,"byteOffset":92668,"byteLength":13692},{"buffer":0,"byteOffset":106360,"byteLength":9128},{"buffer":0,"byteOffset":115488,"byteLength":4564},{"buffer":0,"byteOffset":120052,"byteLength":18256},{"buffer":0,"byteOffset":138308,"byteLength":6312},{"buffer":0,"byteOffset":144620,"byteLength":8724},{"buffer":0,"byteOffset":153344,"byteLength":8724},{"buffer":0,"byteOffset":162068,"byteLength":5816},{"buffer":0,"byteOffset":167884,"byteLength":2908},{"buffer":0,"byteOffset":170792,"byteLength":11632},{"buffer":0,"byteOffset":182424,"byteLength":5736},{"buffer":0,"byteOffset":188160,"byteLength":5256},{"buffer":0,"byteOffset":193416,"byteLength":5256},{"buffer":0,"byteOffset":198672,"byteLength":3504},{"buffer":0,"byteOffset":202176,"byteLength":1752},{"buffer":0,"byteOffset":203928,"byteLength":7008},{"buffer":0,"byteOffset":210936,"byteLength":2856},{"buffer":0,"byteOffset":213792,"byteLength":5256},{"buffer":0,"byteOffset":219048,"byteLength":5256},{"buffer":0,"byteOffset":224304,"byteLength":3504},{"buffer":0,"byteOffset":227808,"byteLength":1752},{"buffer":0,"byteOffset":229560,"byteLength":7008},{"buffer":0,"byteOffset":236568,"byteLength":2856},{"buffer":0,"byteOffset":239424,"byteLength":2624}],"buffers":[{"byteLength":242048,"uri":"data:application/octet-stream;base64,"}],"textures":[{"source":0,"sampler":0}],"images":[{"uri":"knight.png"}],"samplers":[{"magFilter":9729,"minFilter":9987}],"materials":[{"doubleSided":true,"name":"knight_texture","pbrMetallicRoughness":{"baseColorTexture":{"index":0},"metallicFactor":0,"roughnessFactor":0.5}}],"meshes":[{"name":"Cube.124","primitives":[{"attributes":{"POSITION":0,"NORMAL":1,"TEXCOORD_0":2},"indices":3,"material":0}]},{"name":"Plane.004","primitives":[{"attributes":{"POSITION":4,"NORMAL":5,"TEXCOORD_0":6},"indices":7,"material":0}]},{"name":"Cube.125","primitives":[{"attributes":{"POSITION":8,"NORMAL":9,"TEXCOORD_0":10,"JOINTS_0":11,"WEIGHTS_0":12},"indices":13,"material":0}]},{"name":"Cube.126","primitives":[{"attributes":{"POSITION":14,"NORMAL":15,"TEXCOORD_0":16,"JOINTS_0":17,"WEIGHTS_0":18},"indices":19,"material":0}]},{"name":"PrototypePete_body.020","primitives":[{"attributes":{"POSITION":20,"NORMAL":21,"TEXCOORD_0":22,"JOINTS_0":23,"WEIGHTS_0":24},"indices":25,"material":0}]},{"name":"PrototypePete_head.001","primitives":[{"attributes":{"POSITION":26,"NORMAL":27,"TEXCOORD_0":28,"JOINTS_0":29,"WEIGHTS_0":30},"indices":31,"material":0}]},{"name":"Cube.128","primitives":[{"attributes":{"POSITION":32,"NORMAL":33,"TEXCOORD_0":34,"JOINTS_0":35,"WEIGHTS_0":36},"indices":37,"material":0}]},{"name":"Cube.127","primitives":[{"attributes":{"POSITION":38,"NORMAL":39,"TEXCOORD_0":40,"JOINTS_0":41,"WEIGHTS_0":42},"indices":43,"material":0}]}],"nodes":[{"name":"handslot.l","translation":[8.348148838877023e-10,0.09612506628036499,-0.05750012397766113],"rotation":[1.6097531085890182e-9,1.6097529975667157e-9,-0.7071068286895752,0.7071067094802856],"scale":[0.9999999403953552,1,0.9999999403953552]},{"name":"hand.l","translation":[9.08162434143378e-13,0.07382583618164062,2.220446049250313e-16],"rotation":[1.2001791782623172e-9,1.3310183533121744e-7,-0.000005455195605463814,1],"scale":[1,0.9999999403953552,0.9999999403953552],"children":[0]},{"name":"wrist.l","translation":[8.719291955117114e-9,0.26004382967948914,-1.5019517574099694e-10],"rotation":[-9.737839007373239e-11,-2.984370806036196e-10,0.02665809914469719,0.9996446967124939],"scale":[0.9999999403953552,0.9999999403953552,0.9999999403953552],"children":[1]},{"name":"lowerarm.l","translation":[-3.219664979070558e-9,0.24189729988574982,-1.1940561250867177e-7],"rotation":[1.6480538045371418e-9,-5.950362336193393e-8,-0.05528552085161209,0.9984706044197083],"scale":[1.000000238418579,0.9999998807907104,0.9999999403953552],"children":[2]},{"name":"upperarm.l","translation":[0.21200737357139587,0.13413214683532715,8.40246201505579e-8],"rotation":[-0.5141214728355408,-0.485467791557312,-0.4854677617549896,0.5141218900680542],"scale":[0.9999993443489075,0.9999993443489075,0.9999997615814209],"children":[3]},{"name":"handslot.r","translation":[-8.348148838877023e-10,0.09612506628036499,-0.05750012397766113],"rotation":[1.6097330135522725e-9,-1.60973290252997e-9,0.7071068286895752,0.7071067094802856],"scale":[0.9999999403953552,1,0.9999999403953552]},{"name":"hand.r","translation":[1.3322676295501878e-15,0.07382583618164062,2.220446049250313e-16],"rotation":[1.1999315985278258e-9,-8.93185898576121e-8,0.000005455195605463814,1],"scale":[1,0.9999999403953552,0.9999999403953552],"children":[5]},{"name":"wrist.r","translation":[-8.718383348593761e-9,0.26004382967948914,-1.5019517574099694e-10],"rotation":[-9.737839007373239e-11,2.984370806036196e-10,-0.02665809914469719,0.9996446967124939],"scale":[0.9999999403953552,0.9999999403953552,0.9999999403953552],"children":[6]},{"name":"lowerarm.r","translation":[-7.121856576697283e-11,0.2418973296880722,-1.1940561250867177e-7],"rotation":[1.6480535824925369e-9,5.950363046736129e-8,0.05528552085161209,0.9984706044197083],"scale":[1.000000238418579,0.9999998807907104,0.9999999403953552],"children":[7]},{"name":"upperarm.r","translation":[-0.21200737357139587,0.13413214683532715,8.40246201505579e-8],"rotation":[-0.514121413230896,0.48546773195266724,0.4854677617549896,0.514121949672699],"scale":[0.9999993443489075,0.9999993443489075,0.9999997615814209],"children":[8]},{"name":"Knight_Helmet","translation":[4.76837158203125e-7,-0.025534328351245028,-1.0854230936274689e-7],"rotation":[-7.85025605384411e-37,-7.1054265105680546e-15,1.1048254461819734e-22,1],"mesh":0},{"name":"head","translation":[0,0.26879656314849854,0],"children":[10]},{"name":"Knight_Cape","translation":[1.998904568454266e-21,0.24326236658075567,-1.406604042131221e-7],"rotation":[4.4484787892440694e-36,-7.105427357601002e-15,-6.2606778228725875e-22,1],"mesh":1},{"name":"chest","translation":[0,0.37498795986175537,0],"scale":[1,0.9999999403953552,1],"children":[4,9,11,12]},{"name":"spine","translation":[0,0.19197750091552734,0],"rotation":[0,7.105427357601002e-15,0,1],"children":[13]},{"name":"toes.l","translation":[-2.1305965325346676e-10,0.16565002501010895,5.171735040221392e-9],"rotation":[-3.04790823690837e-8,0.9203547835350037,-0.3910844624042511,6.948484809754518e-8],"scale":[1,0.9999999403953552,1.0000001192092896]},{"name":"foot.l","translation":[1.8322229844436322e-10,0.14943702518939972,9.665366285105392e-10],"rotation":[-0.45523902773857117,1.619712719502786e-8,-3.4356844480498694e-8,0.8903692960739136],"scale":[1,1.0000008344650269,0.9999987483024597],"children":[15]},{"name":"lowerleg.l","translation":[3.5798182196344897e-9,0.22707749903202057,-6.1398597317463555e-9],"rotation":[0.1062251403927803,6.865285229196161e-8,-7.376987554152947e-8,0.9943422079086304],"scale":[1,1.0000004768371582,1.0000001192092896],"children":[16]},{"name":"upperleg.l","translation":[0.17094506323337555,0.11358726024627686,1.392327231286572e-8],"rotation":[0.9998490810394287,-7.132756252303807e-8,-1.2042738362083583e-8,0.017373191192746162],"scale":[1,0.9999998211860657,1.0000011920928955],"children":[17]},{"name":"toes.r","translation":[2.1305768260759805e-10,0.16565002501010895,5.171739481113491e-9],"rotation":[-3.047908592179738e-8,-0.9203547835350037,0.3910844624042511,6.94848623083999e-8],"scale":[1,0.9999999403953552,1.0000001192092896]},{"name":"foot.r","translation":[-1.832210216878849e-10,0.14943702518939972,9.665415134918476e-10],"rotation":[-0.45523902773857117,1.659824135913368e-7,2.2509516472979385e-9,0.8903692960739136],"scale":[1,1.0000008344650269,0.9999987483024597],"children":[19]},{"name":"lowerleg.r","translation":[-3.5798182196344897e-9,0.22707749903202057,-6.1398597317463555e-9],"rotation":[0.1062251403927803,-6.865286650281632e-8,7.376987554152947e-8,0.9943422079086304],"scale":[1,1.0000004768371582,1.0000001192092896],"children":[20]},{"name":"upperleg.r","translation":[-0.17094506323337555,0.11358726024627686,1.392327231286572e-8],"rotation":[0.9998490810394287,7.426564252455137e-8,-3.172627316416765e-8,0.017373191192746162],"scale":[1,0.9999998211860657,1.0000011920928955],"children":[21]},{"name":"hips","translation":[0,0.4056634306907654,0],"rotation":[0,-1.1920927533992653e-7,0,1],"children":[14,18,22]},{"name":"kneeIK.l","translation":[0.1709449142217636,0.29231026768684387,0.5758124589920044],"rotation":[0.7071068286895752,-2.2930233001261513e-7,-4.6055184554916195e-8,0.7071068286895752],"scale":[1,0.9999998807907104,0.9999998807907104]},{"name":"heelIK.l","translation":[8.589881694831547e-9,0.16565003991127014,-5.0913655513795675e-9],"rotation":[-0.39108434319496155,-6.88499994794256e-8,-6.562877530313926e-8,0.9203548431396484],"scale":[1,0.9999999403953552,1]},{"name":"IK-foot.l","translation":[8.589881694831547e-9,0.16565003991127014,-5.0913655513795675e-9],"rotation":[-1,3.10862701004928e-15,-1.9470719792025193e-7,6.917388749250975e-22],"scale":[1,1,0.9999999403953552]},{"name":"control-foot-roll.l","translation":[-1.1148216572109959e-8,0.21343614161014557,-2.50941980953559e-15],"rotation":[1.0403525152469228e-7,-0.39108434319496155,-0.9203548431396484,2.9526043832106552e-8],"scale":[1,0.9999999403953552,0.9999998807907104],"children":[25,26]},{"name":"IK-toe.l","translation":[-4.556949040335212e-9,-7.950292091329914e-10,-1.862645149230957e-9],"rotation":[1.3700857946876735e-22,-6.740978038336361e-17,-1.94669347308718e-8,1],"scale":[1,0.9999999403953552,1]},{"name":"control-heel-roll.l","translation":[1.945810979009366e-8,0.3628326654434204,-2.42861286636753e-15],"rotation":[-7.105437521996369e-15,1.3832116828440821e-22,-1,2.339829540917677e-34],"children":[27,28]},{"name":"control-toe-roll.l","translation":[0.1709449738264084,0.025990262627601624,0.24578937888145447],"rotation":[-0.7071068286895752,-7.052850037325697e-8,-7.052848616240226e-8,0.7071068286895752],"children":[29]},{"name":"kneeIK.r","translation":[-0.1709451824426651,0.29231026768684387,0.5758123397827148],"rotation":[0.7071068286895752,-3.8238496813391976e-8,1.4500865574973432e-7,0.7071068286895752],"scale":[1,0.9999998807907104,0.9999998807907104]},{"name":"heelIK.r","translation":[-6.311275058124011e-9,0.16565003991127014,1.366082358345011e-9],"rotation":[-0.39108434319496155,-6.885001369028032e-8,-6.562875398685719e-8,0.9203548431396484],"scale":[1,0.9999999403953552,1]},{"name":"IK-foot.r","translation":[-2.1212436251971667e-8,0.16565003991127014,1.366076585185283e-9],"rotation":[1,4.4408645699298404e-16,1.9470719792025193e-7,6.917388749250975e-22],"scale":[1,1,0.9999999403953552]},{"name":"control-foot-roll.r","translation":[3.752941513113228e-9,0.21343614161014557,0],"rotation":[1.0403522310298285e-7,-0.39108434319496155,-0.9203548431396484,2.952605271389075e-8],"scale":[1,0.9999999403953552,0.9999998807907104],"children":[32,33]},{"name":"IK-toe.r","translation":[-4.556945487621533e-9,7.950362035380465e-10,-1.862645149230957e-9],"rotation":[1.3700850373812045e-22,-6.740986641014731e-17,-1.9466920520017084e-8,1],"scale":[1,0.9999999403953552,1]},{"name":"control-heel-roll.r","translation":[1.945810623737998e-8,0.3628326654434204,2.42861286636753e-15],"rotation":[-7.105437521996369e-15,1.3832106731021235e-22,-1,2.3398304592726387e-34],"children":[34,35]},{"name":"control-toe-roll.r","translation":[-0.17094509303569794,0.025990262627601624,0.2457892894744873],"rotation":[-0.7071068286895752,-7.052850747868433e-8,-7.052850037325697e-8,0.7071068286895752],"children":[36]},{"name":"elbowIK.l","translation":[0.4535074830055237,1.10676109790802,-0.5888593792915344],"rotation":[-0.7071068286895752,-7.279511038404962e-8,-7.279508906776755e-8,0.7071068286895752]},{"name":"handIK.l","translation":[0.7131814956665039,1.10676109790802,2.5491414135103696e-7],"rotation":[-0.4999999403953552,-0.5000000596046448,-0.5000000596046448,0.5],"scale":[0.9999998807907104,0.9999997615814209,0.9999999403953552]},{"name":"elbowIK.r","translation":[-0.4535071849822998,1.10676109790802,-0.5888596177101135],"rotation":[-0.7071068286895752,-7.279511038404962e-8,-7.279508906776755e-8,0.7071068286895752]},{"name":"handIK.r","translation":[-0.7131815552711487,1.10676109790802,-8.515731053648778e-8],"rotation":[-0.5000000596046448,0.4999999403953552,0.5,0.5000000596046448]},{"name":"root","rotation":[0,1.1920927533992653e-7,0,1],"children":[23,24,30,31,37,38,39,40,41]},{"name":"Knight_ArmLeft","mesh":2,"skin":0},{"name":"Knight_ArmRight","mesh":3,"skin":0},{"name":"Knight_Body","mesh":4,"skin":0},{"name":"Knight_Head","mesh":5,"skin":0},{"name":"Knight_LegLeft","mesh":6,"skin":0},{"name":"Knight_LegRight","mesh":7,"skin":0},{"name":"Rig","children":[43,44,45,46,47,48,42]}],"skins":[{"name":"Rig","joints":[42,23,14,13,4,3,2,1,0,9,8,7,6,5,11,18,17,16,15,22,21,20,19,24,30,29,27,25,26,28,31,37,36,34,32,33,35,38,39,40,41],"inverseBindMatrices":44}],"scenes":[{"nodes":[49]}],"scene":0}